<svg width="144" height="37" viewBox="0 0 144 37" fill="none" xmlns="http://www.w3.org/2000/svg">
<path d="M36.5437 18.6375V3.15234H30.7022V18.5005C30.7022 23.5709 26.7626 27.5449 21.872 27.5449C16.9814 27.5449 13.0418 23.4338 13.0418 18.5005V3.15234H7.06445V18.6375C7.06445 26.9968 13.7211 33.7116 21.7361 33.7116C30.0229 33.7116 36.5437 26.8597 36.5437 18.6375Z" fill="black"/>
<path d="M38.4453 18.2264V33.7116H44.2868V18.3635C44.2868 13.2931 48.2264 9.31901 53.117 9.31901C58.0076 9.31901 61.9472 13.4301 61.9472 18.3635V33.7116H67.9245V18.2264C67.9245 9.86716 61.2679 3.15234 53.2529 3.15234C44.9661 3.15234 38.4453 9.86716 38.4453 18.2264Z" fill="black"/>
<path d="M75.6677 3.15234H69.8262V33.5746H75.6677V3.15234Z" fill="black"/>
<path d="M116.966 18.4998C116.966 23.5702 120.906 27.6813 125.932 27.6813C130.823 27.6813 134.898 23.5702 134.898 18.4998C134.898 13.4295 130.959 9.31836 125.932 9.31836C121.042 9.31836 116.966 13.4295 116.966 18.4998Z" fill="black"/>
<path d="M126.204 0C126.068 0 125.932 0 125.932 0C115.879 0 107.864 8.22222 107.864 18.5C107.864 28.6407 116.015 37 125.932 37C135.849 37 144 28.7778 144 18.637V0H126.204ZM140.74 18.637C140.74 26.9963 134.083 33.7111 125.932 33.7111C117.781 33.7111 111.125 26.9963 111.125 18.637C111.125 10.2778 117.781 3.56296 125.932 3.56296C126.068 3.56296 126.068 3.56296 126.204 3.56296H140.74V18.637Z" fill="black"/>
<path d="M100.256 22.3375C98.7621 25.4894 95.7734 27.5449 92.2414 27.5449C87.3508 27.5449 83.2753 23.4338 83.2753 18.3635C83.2753 13.2931 87.215 9.18197 92.2414 9.18197C95.7734 9.18197 98.898 11.3746 100.392 14.3894L104.604 10.0042C101.887 5.89308 97.2678 3.15234 92.1055 3.15234C83.8187 3.15234 77.1621 10.0042 77.1621 18.5005C77.1621 26.9968 83.8187 33.8486 92.1055 33.8486C97.2678 33.8486 101.887 31.1079 104.604 26.9968L100.256 22.3375Z" fill="black"/>
<path d="M3.26061 33.3006C2.03796 33.3006 0.951172 32.3413 0.951172 30.9709C0.951172 30.1487 1.22287 29.6006 1.63042 29.1895L2.58136 30.1487C2.30966 30.4228 2.17381 30.6969 2.17381 31.108C2.17381 31.7932 2.71721 32.2043 3.39645 32.2043C4.0757 32.2043 4.6191 31.7932 4.6191 31.108C4.6191 30.6969 4.48325 30.4228 4.21155 30.1487L4.89079 29.4635C5.29834 29.8746 5.70589 30.4228 5.70589 31.245C5.57004 32.3413 4.48325 33.3006 3.26061 33.3006Z" fill="black"/>
<path d="M3.26061 28.7774C2.03796 28.7774 0.951172 27.9552 0.951172 26.5849C0.951172 25.0774 2.03796 24.5293 3.26061 24.5293C3.39646 24.5293 3.5323 24.5293 3.5323 24.5293V27.5441C4.0757 27.4071 4.3474 26.996 4.3474 26.4478C4.3474 26.0367 4.21155 25.7626 3.93985 25.3515L4.6191 24.6663C5.16249 25.0774 5.43419 25.6256 5.43419 26.4478C5.57004 27.8182 4.6191 28.7774 3.26061 28.7774ZM2.85306 25.7626C2.30966 25.8997 1.90212 26.1737 1.90212 26.7219C1.90212 27.27 2.30966 27.5441 2.85306 27.6811V25.7626Z" fill="black"/>
<path d="M1.08691 23.7065V22.4732H1.76616C1.35861 22.1991 1.08691 21.788 1.08691 21.2398C1.08691 20.2806 1.76616 19.7324 2.7171 19.7324H5.43408V20.9658H2.9888C2.4454 20.9658 2.17371 21.2398 2.17371 21.6509C2.17371 22.0621 2.4454 22.4732 2.9888 22.4732H5.43408V23.7065H1.08691Z" fill="black"/>
<path d="M4.21132 18.3625H2.17358V18.9107H1.08679V18.3625H0V17.1292H1.08679V16.1699H2.17358V17.1292H4.07547C4.34717 17.1292 4.48302 16.9921 4.48302 16.7181C4.48302 16.444 4.48302 16.307 4.34717 16.1699H5.29811C5.43396 16.444 5.43396 16.7181 5.43396 17.1292C5.43396 17.8144 5.16226 18.3625 4.21132 18.3625Z" fill="black"/>
<path d="M1.08688 15.2111V13.9778H1.90197C1.35857 13.7037 0.951027 13.2926 1.08688 12.6074H2.30952C2.30952 13.4296 2.85291 13.9778 3.80386 13.9778H5.43405V15.2111H1.08688Z" fill="black"/>
<path d="M3.26061 12.1964C2.03796 12.1964 0.951172 11.2371 0.951172 9.86674C0.951172 8.49637 1.90212 7.53711 3.12476 7.53711C4.3474 7.53711 5.43419 8.49637 5.43419 9.86674C5.57004 11.1001 4.48325 12.1964 3.26061 12.1964ZM3.26061 8.63341C2.58136 8.63341 2.03796 9.04452 2.03796 9.7297C2.03796 10.5519 2.58136 10.963 3.26061 10.963C3.93985 10.963 4.48325 10.5519 4.48325 9.86674C4.48325 9.04452 3.93985 8.63341 3.26061 8.63341Z" fill="black"/>
<path d="M4.89069 6.85203L4.07559 6.30388C4.34729 5.89277 4.61899 5.34462 4.61899 4.93351C4.61899 4.5224 4.48314 4.38536 4.34729 4.38536C4.07559 4.38536 3.93974 4.79647 3.8039 5.34462C3.66805 5.89277 3.39635 6.57795 2.4454 6.57795C1.63031 6.57795 1.08691 5.89277 1.08691 4.93351C1.08691 4.38536 1.22276 3.83721 1.63031 3.28906L2.4454 3.70017C2.17371 4.38536 2.03786 4.79647 2.03786 5.07054C2.03786 5.34462 2.17371 5.48165 2.30956 5.48165C2.58125 5.48165 2.7171 5.07054 2.85295 4.65943C2.9888 4.11128 3.39635 3.28906 4.07559 3.28906C5.02654 3.28906 5.43408 3.97425 5.43408 4.93351C5.43408 5.61869 5.29823 6.30388 4.89069 6.85203Z" fill="black"/>
<path d="M125.932 27.544C130.884 27.544 134.898 23.4946 134.898 18.4995C134.898 13.5044 130.884 9.45508 125.932 9.45508C120.981 9.45508 116.966 13.5044 116.966 18.4995C116.966 23.4946 120.981 27.544 125.932 27.544Z" fill="black"/>
</svg>
